<svg width="2062" height="1225" viewBox="0 0 2062 1225" fill="none" xmlns="http://www.w3.org/2000/svg">
<g opacity="0.2" clip-path="url(#clip0_2551_326)">
<path d="M142.097 941.001C63.5443 941.001 0 1004.55 0 1083.1C0 1161.46 63.5443 1225.2 142.097 1225.2C220.456 1225.2 284.195 1161.65 284.195 1083.1C284 1004.55 220.456 941.001 142.097 941.001ZM142.097 1216.03C68.6122 1216.03 9.16129 1156.58 9.16129 1083.1C9.16129 1009.61 68.6122 950.162 142.097 950.162C215.583 950.162 275.034 1009.61 275.034 1083.1C275.034 1156.39 215.388 1216.03 142.097 1216.03Z" fill="white"/>
<path d="M142.099 971.604C80.6986 971.604 30.7988 1021.5 30.7988 1082.9C30.7988 1144.3 80.6986 1194.2 142.099 1194.2C203.499 1194.2 253.399 1144.5 253.399 1083.1C253.399 1021.5 203.499 971.604 142.099 971.604ZM142.099 1177.25C90.0548 1177.25 47.757 1134.95 47.757 1082.9C47.757 1030.86 90.0548 988.562 142.099 988.562C194.143 988.562 236.441 1030.86 236.441 1082.9C236.441 1134.95 194.143 1177.25 142.099 1177.25Z" fill="white"/>
<path d="M142.098 1020.53C107.597 1020.53 79.5283 1048.6 79.5283 1083.1C79.5283 1117.6 107.402 1145.67 142.098 1145.67C176.599 1145.67 204.668 1117.6 204.668 1083.1C204.473 1048.6 176.599 1020.53 142.098 1020.53ZM142.098 1116.62C123.58 1116.62 108.572 1101.62 108.572 1083.1C108.572 1064.58 123.58 1049.57 142.098 1049.57C160.616 1049.57 175.624 1064.58 175.624 1083.1C175.624 1101.62 160.616 1116.62 142.098 1116.62Z" fill="white"/>
</g>
<g opacity="0.8" clip-path="url(#clip1_2551_326)">
<path d="M1880.34 834.265C1880.34 835.785 1879.19 836.924 1877.67 836.924C1876.14 836.924 1875 835.785 1875 834.265C1875 832.746 1876.14 831.606 1877.67 831.606C1879.19 831.606 1880.34 832.873 1880.34 834.265Z" fill="white"/>
<path d="M1903.08 834.265C1903.08 835.785 1901.93 836.924 1900.41 836.924C1898.88 836.924 1897.74 835.785 1897.74 834.265C1897.74 832.746 1898.88 831.606 1900.41 831.606C1901.81 831.606 1903.08 832.873 1903.08 834.265Z" fill="white"/>
<path d="M1925.69 834.265C1925.69 835.785 1924.54 836.924 1923.02 836.924C1921.5 836.924 1920.35 835.785 1920.35 834.265C1920.35 832.746 1921.5 831.606 1923.02 831.606C1924.54 831.606 1925.69 832.873 1925.69 834.265Z" fill="white"/>
<path d="M1948.43 834.265C1948.43 835.785 1947.28 836.924 1945.76 836.924C1944.24 836.924 1943.09 835.785 1943.09 834.265C1943.09 832.746 1944.24 831.606 1945.76 831.606C1947.28 831.606 1948.43 832.873 1948.43 834.265Z" fill="white"/>
<path d="M1971.17 834.265C1971.17 835.785 1970.02 836.924 1968.5 836.924C1966.98 836.924 1965.83 835.785 1965.83 834.265C1965.83 832.746 1966.98 831.606 1968.5 831.606C1969.9 831.606 1971.17 832.873 1971.17 834.265Z" fill="white"/>
<path d="M1993.91 834.265C1993.91 835.785 1992.76 836.924 1991.24 836.924C1989.72 836.924 1988.57 835.785 1988.57 834.265C1988.57 832.746 1989.72 831.606 1991.24 831.606C1992.76 831.606 1993.91 832.873 1993.91 834.265Z" fill="white"/>
<path d="M2016.52 834.265C2016.52 835.785 2015.38 836.924 2013.85 836.924C2012.33 836.924 2011.18 835.785 2011.18 834.265C2011.18 832.746 2012.33 831.606 2013.85 831.606C2015.38 831.606 2016.52 832.873 2016.52 834.265Z" fill="white"/>
<path d="M2039.26 834.265C2039.26 835.785 2038.12 836.924 2036.59 836.924C2035.07 836.924 2033.92 835.785 2033.92 834.265C2033.92 832.746 2035.07 831.606 2036.59 831.606C2038.12 831.606 2039.26 832.873 2039.26 834.265Z" fill="white"/>
<path d="M2062 834.265C2062 835.785 2060.86 836.924 2059.33 836.924C2057.81 836.924 2056.66 835.785 2056.66 834.265C2056.66 832.746 2057.81 831.606 2059.33 831.606C2060.73 831.606 2062 832.873 2062 834.265Z" fill="white"/>
<path d="M1880.34 853.132C1880.34 854.651 1879.19 855.791 1877.67 855.791C1876.14 855.791 1875 854.651 1875 853.132C1875 851.612 1876.14 850.473 1877.67 850.473C1879.19 850.473 1880.34 851.612 1880.34 853.132Z" fill="white"/>
<path d="M1903.08 853.132C1903.08 854.651 1901.93 855.791 1900.41 855.791C1898.88 855.791 1897.74 854.651 1897.74 853.132C1897.74 851.612 1898.88 850.473 1900.41 850.473C1901.81 850.473 1903.08 851.612 1903.08 853.132Z" fill="white"/>
<path d="M1925.69 853.132C1925.69 854.651 1924.54 855.791 1923.02 855.791C1921.5 855.791 1920.35 854.651 1920.35 853.132C1920.35 851.612 1921.5 850.473 1923.02 850.473C1924.54 850.473 1925.69 851.612 1925.69 853.132Z" fill="white"/>
<path d="M1948.43 853.132C1948.43 854.651 1947.28 855.791 1945.76 855.791C1944.24 855.791 1943.09 854.651 1943.09 853.132C1943.09 851.612 1944.24 850.473 1945.76 850.473C1947.28 850.473 1948.43 851.612 1948.43 853.132Z" fill="white"/>
<path d="M1971.17 853.132C1971.17 854.651 1970.02 855.791 1968.5 855.791C1966.98 855.791 1965.83 854.651 1965.83 853.132C1965.83 851.612 1966.98 850.473 1968.5 850.473C1969.9 850.473 1971.17 851.612 1971.17 853.132Z" fill="white"/>
<path d="M1993.91 853.132C1993.91 854.651 1992.76 855.791 1991.24 855.791C1989.72 855.791 1988.57 854.651 1988.57 853.132C1988.57 851.612 1989.72 850.473 1991.24 850.473C1992.76 850.473 1993.91 851.612 1993.91 853.132Z" fill="white"/>
<path d="M2016.52 853.132C2016.52 854.651 2015.38 855.791 2013.85 855.791C2012.33 855.791 2011.18 854.651 2011.18 853.132C2011.18 851.612 2012.33 850.473 2013.85 850.473C2015.38 850.473 2016.52 851.612 2016.52 853.132Z" fill="white"/>
<path d="M2039.26 853.132C2039.26 854.651 2038.12 855.791 2036.59 855.791C2035.07 855.791 2033.92 854.651 2033.92 853.132C2033.92 851.612 2035.07 850.473 2036.59 850.473C2038.12 850.473 2039.26 851.612 2039.26 853.132Z" fill="white"/>
<path d="M2062 853.132C2062 854.651 2060.86 855.791 2059.33 855.791C2057.81 855.791 2056.66 854.651 2056.66 853.132C2056.66 851.612 2057.81 850.473 2059.33 850.473C2060.73 850.473 2062 851.612 2062 853.132Z" fill="white"/>
<path d="M1880.34 796.66C1880.34 798.179 1879.19 799.319 1877.67 799.319C1876.14 799.319 1875 798.179 1875 796.66C1875 795.141 1876.14 794.001 1877.67 794.001C1879.19 794.001 1880.34 795.141 1880.34 796.66Z" fill="white"/>
<path d="M1903.08 796.66C1903.08 798.179 1901.93 799.319 1900.41 799.319C1898.88 799.319 1897.74 798.179 1897.74 796.66C1897.74 795.141 1898.88 794.001 1900.41 794.001C1901.81 794.001 1903.08 795.141 1903.08 796.66Z" fill="white"/>
<path d="M1925.69 796.66C1925.69 798.179 1924.54 799.319 1923.02 799.319C1921.5 799.319 1920.35 798.179 1920.35 796.66C1920.35 795.141 1921.62 794.001 1923.02 794.001C1924.54 794.001 1925.69 795.141 1925.69 796.66Z" fill="white"/>
<path d="M1948.43 796.66C1948.43 798.179 1947.28 799.319 1945.76 799.319C1944.24 799.319 1943.09 798.179 1943.09 796.66C1943.09 795.141 1944.36 794.001 1945.76 794.001C1947.16 794.001 1948.43 795.141 1948.43 796.66Z" fill="white"/>
<path d="M1971.17 796.66C1971.17 798.179 1970.02 799.319 1968.5 799.319C1966.98 799.319 1965.83 798.179 1965.83 796.66C1965.83 795.141 1966.98 794.001 1968.5 794.001C1969.9 794.001 1971.17 795.141 1971.17 796.66Z" fill="white"/>
<path d="M1993.91 796.66C1993.91 798.179 1992.76 799.319 1991.24 799.319C1989.72 799.319 1988.57 798.179 1988.57 796.66C1988.57 795.141 1989.72 794.001 1991.24 794.001C1992.76 794.001 1993.91 795.141 1993.91 796.66Z" fill="white"/>
<path d="M2016.52 796.66C2016.52 798.179 2015.38 799.319 2013.85 799.319C2012.33 799.319 2011.18 798.179 2011.18 796.66C2011.18 795.141 2012.33 794.001 2013.85 794.001C2015.38 794.001 2016.52 795.141 2016.52 796.66Z" fill="white"/>
<path d="M2039.26 796.66C2039.26 798.179 2038.12 799.319 2036.59 799.319C2035.07 799.319 2033.92 798.179 2033.92 796.66C2033.92 795.141 2035.07 794.001 2036.59 794.001C2038.12 794.001 2039.26 795.141 2039.26 796.66Z" fill="white"/>
<path d="M2062 796.66C2062 798.179 2060.86 799.319 2059.33 799.319C2057.81 799.319 2056.66 798.179 2056.66 796.66C2056.66 795.141 2057.81 794.001 2059.33 794.001C2060.73 794.001 2062 795.141 2062 796.66Z" fill="white"/>
<path d="M1880.34 815.526C1880.34 817.046 1879.19 818.185 1877.67 818.185C1876.14 818.185 1875 816.919 1875 815.526C1875 814.007 1876.14 812.867 1877.67 812.867C1879.19 812.867 1880.34 814.007 1880.34 815.526Z" fill="white"/>
<path d="M1903.08 815.526C1903.08 817.046 1901.93 818.185 1900.41 818.185C1898.88 818.185 1897.74 817.046 1897.74 815.526C1897.74 814.007 1898.88 812.867 1900.41 812.867C1901.81 812.867 1903.08 814.007 1903.08 815.526Z" fill="white"/>
<path d="M1925.69 815.526C1925.69 817.046 1924.54 818.185 1923.02 818.185C1921.5 818.185 1920.35 817.046 1920.35 815.526C1920.35 814.007 1921.5 812.867 1923.02 812.867C1924.54 812.867 1925.69 814.007 1925.69 815.526Z" fill="white"/>
<path d="M1948.43 815.526C1948.43 817.046 1947.28 818.185 1945.76 818.185C1944.24 818.185 1943.09 817.046 1943.09 815.526C1943.09 814.007 1944.24 812.867 1945.76 812.867C1947.28 812.867 1948.43 814.007 1948.43 815.526Z" fill="white"/>
<path d="M1971.17 815.526C1971.17 817.046 1970.02 818.185 1968.5 818.185C1966.98 818.185 1965.83 817.046 1965.83 815.526C1965.83 814.007 1966.98 812.867 1968.5 812.867C1969.9 812.867 1971.17 814.007 1971.17 815.526Z" fill="white"/>
<path d="M1993.91 815.526C1993.91 817.046 1992.76 818.185 1991.24 818.185C1989.72 818.185 1988.57 817.046 1988.57 815.526C1988.57 814.007 1989.72 812.867 1991.24 812.867C1992.76 812.867 1993.91 814.007 1993.91 815.526Z" fill="white"/>
<path d="M2016.52 815.526C2016.52 817.046 2015.38 818.185 2013.85 818.185C2012.33 818.185 2011.18 817.046 2011.18 815.526C2011.18 814.007 2012.33 812.867 2013.85 812.867C2015.38 812.867 2016.52 814.007 2016.52 815.526Z" fill="white"/>
<path d="M2039.26 815.526C2039.26 817.046 2038.12 818.185 2036.59 818.185C2035.07 818.185 2033.92 817.046 2033.92 815.526C2033.92 814.007 2035.07 812.867 2036.59 812.867C2038.12 812.867 2039.26 814.007 2039.26 815.526Z" fill="white"/>
<path d="M2062 815.526C2062 817.046 2060.86 818.185 2059.33 818.185C2057.81 818.185 2056.66 817.046 2056.66 815.526C2056.66 814.007 2057.81 812.867 2059.33 812.867C2060.73 812.867 2062 814.007 2062 815.526Z" fill="white"/>
<path d="M1880.34 871.871C1880.34 873.39 1879.19 874.53 1877.67 874.53C1876.14 874.53 1875 873.39 1875 871.871C1875 870.351 1876.14 869.212 1877.67 869.212C1879.19 869.212 1880.34 870.478 1880.34 871.871Z" fill="white"/>
<path d="M1903.08 871.871C1903.08 873.39 1901.93 874.53 1900.41 874.53C1898.88 874.53 1897.74 873.39 1897.74 871.871C1897.74 870.351 1898.88 869.212 1900.41 869.212C1901.81 869.212 1903.08 870.478 1903.08 871.871Z" fill="white"/>
<path d="M1925.69 871.871C1925.69 873.39 1924.54 874.53 1923.02 874.53C1921.5 874.53 1920.35 873.39 1920.35 871.871C1920.35 870.351 1921.5 869.212 1923.02 869.212C1924.54 869.212 1925.69 870.478 1925.69 871.871Z" fill="white"/>
<path d="M1948.43 871.871C1948.43 873.39 1947.28 874.53 1945.76 874.53C1944.24 874.53 1943.09 873.39 1943.09 871.871C1943.09 870.351 1944.24 869.212 1945.76 869.212C1947.28 869.212 1948.43 870.478 1948.43 871.871Z" fill="white"/>
<path d="M1971.17 871.871C1971.17 873.39 1970.02 874.53 1968.5 874.53C1966.98 874.53 1965.83 873.39 1965.83 871.871C1965.83 870.351 1966.98 869.212 1968.5 869.212C1969.9 869.212 1971.17 870.478 1971.17 871.871Z" fill="white"/>
<path d="M1993.91 871.871C1993.91 873.39 1992.76 874.53 1991.24 874.53C1989.72 874.53 1988.57 873.39 1988.57 871.871C1988.57 870.351 1989.72 869.212 1991.24 869.212C1992.76 869.212 1993.91 870.478 1993.91 871.871Z" fill="white"/>
<path d="M2016.52 871.871C2016.52 873.39 2015.38 874.53 2013.85 874.53C2012.33 874.53 2011.18 873.39 2011.18 871.871C2011.18 870.351 2012.33 869.212 2013.85 869.212C2015.38 869.212 2016.52 870.478 2016.52 871.871Z" fill="white"/>
<path d="M2039.26 871.871C2039.26 873.39 2038.12 874.53 2036.59 874.53C2035.07 874.53 2033.92 873.39 2033.92 871.871C2033.92 870.351 2035.07 869.212 2036.59 869.212C2038.12 869.212 2039.26 870.478 2039.26 871.871Z" fill="white"/>
<path d="M2062 871.871C2062 873.39 2060.86 874.53 2059.33 874.53C2057.81 874.53 2056.66 873.39 2056.66 871.871C2056.66 870.351 2057.81 869.212 2059.33 869.212C2060.73 869.212 2062 870.478 2062 871.871Z" fill="white"/>
<path d="M1880.34 890.737C1880.34 892.256 1879.19 893.396 1877.67 893.396C1876.14 893.396 1875 892.256 1875 890.737C1875 889.218 1876.14 888.078 1877.67 888.078C1879.19 888.078 1880.34 889.218 1880.34 890.737Z" fill="white"/>
<path d="M1903.08 890.737C1903.08 892.256 1901.93 893.396 1900.41 893.396C1898.88 893.396 1897.74 892.256 1897.74 890.737C1897.74 889.218 1898.88 888.078 1900.41 888.078C1901.81 888.078 1903.08 889.218 1903.08 890.737Z" fill="white"/>
<path d="M1925.69 890.737C1925.69 892.256 1924.54 893.396 1923.02 893.396C1921.5 893.396 1920.35 892.256 1920.35 890.737C1920.35 889.218 1921.5 888.078 1923.02 888.078C1924.54 888.078 1925.69 889.218 1925.69 890.737Z" fill="white"/>
<path d="M1945.76 893.396C1947.23 893.396 1948.43 892.206 1948.43 890.737C1948.43 889.269 1947.23 888.078 1945.76 888.078C1944.29 888.078 1943.09 889.269 1943.09 890.737C1943.09 892.206 1944.29 893.396 1945.76 893.396Z" fill="white"/>
<path d="M1971.17 890.737C1971.17 892.256 1970.02 893.396 1968.5 893.396C1966.98 893.396 1965.83 892.256 1965.83 890.737C1965.83 889.218 1966.98 888.078 1968.5 888.078C1969.9 888.078 1971.17 889.218 1971.17 890.737Z" fill="white"/>
<path d="M1993.91 890.737C1993.91 892.256 1992.76 893.396 1991.24 893.396C1989.72 893.396 1988.57 892.256 1988.57 890.737C1988.57 889.218 1989.72 888.078 1991.24 888.078C1992.76 888.078 1993.91 889.218 1993.91 890.737Z" fill="white"/>
<path d="M2016.52 890.737C2016.52 892.256 2015.38 893.396 2013.85 893.396C2012.33 893.396 2011.18 892.256 2011.18 890.737C2011.18 889.218 2012.33 888.078 2013.85 888.078C2015.38 888.078 2016.52 889.218 2016.52 890.737Z" fill="white"/>
<path d="M2036.59 893.396C2038.07 893.396 2039.26 892.206 2039.26 890.737C2039.26 889.269 2038.07 888.078 2036.59 888.078C2035.12 888.078 2033.92 889.269 2033.92 890.737C2033.92 892.206 2035.12 893.396 2036.59 893.396Z" fill="white"/>
<path d="M2062 890.737C2062 892.256 2060.86 893.396 2059.33 893.396C2057.81 893.396 2056.66 892.256 2056.66 890.737C2056.66 889.218 2057.81 888.078 2059.33 888.078C2060.73 888.078 2062 889.218 2062 890.737Z" fill="white"/>
<path d="M1880.34 909.602C1880.34 911.122 1879.19 912.261 1877.67 912.261C1876.14 912.261 1875 911.122 1875 909.602C1875 908.083 1876.14 906.943 1877.67 906.943C1879.19 906.943 1880.34 908.083 1880.34 909.602Z" fill="white"/>
<path d="M1903.08 909.602C1903.08 911.122 1901.93 912.261 1900.41 912.261C1898.88 912.261 1897.74 911.122 1897.74 909.602C1897.74 908.083 1898.88 906.943 1900.41 906.943C1901.81 906.943 1903.08 908.083 1903.08 909.602Z" fill="white"/>
<path d="M1925.69 909.602C1925.69 911.122 1924.54 912.261 1923.02 912.261C1921.5 912.261 1920.35 911.122 1920.35 909.602C1920.35 908.083 1921.5 906.943 1923.02 906.943C1924.54 906.943 1925.69 908.083 1925.69 909.602Z" fill="white"/>
<path d="M1948.43 909.602C1948.43 911.122 1947.28 912.261 1945.76 912.261C1944.24 912.261 1943.09 911.122 1943.09 909.602C1943.09 908.083 1944.24 906.943 1945.76 906.943C1947.28 906.943 1948.43 908.083 1948.43 909.602Z" fill="white"/>
<path d="M1971.17 909.602C1971.17 911.122 1970.02 912.261 1968.5 912.261C1966.98 912.261 1965.83 911.122 1965.83 909.602C1965.83 908.083 1966.98 906.943 1968.5 906.943C1969.9 906.943 1971.17 908.083 1971.17 909.602Z" fill="white"/>
<path d="M1993.91 909.602C1993.91 911.122 1992.76 912.261 1991.24 912.261C1989.72 912.261 1988.57 911.122 1988.57 909.602C1988.57 908.083 1989.72 906.943 1991.24 906.943C1992.76 906.943 1993.91 908.083 1993.91 909.602Z" fill="white"/>
<path d="M2016.52 909.602C2016.52 911.122 2015.38 912.261 2013.85 912.261C2012.33 912.261 2011.18 911.122 2011.18 909.602C2011.18 908.083 2012.33 906.943 2013.85 906.943C2015.38 906.943 2016.52 908.083 2016.52 909.602Z" fill="white"/>
<path d="M2039.26 909.602C2039.26 911.122 2038.12 912.261 2036.59 912.261C2035.07 912.261 2033.92 911.122 2033.92 909.602C2033.92 908.083 2035.07 906.943 2036.59 906.943C2038.12 906.943 2039.26 908.083 2039.26 909.602Z" fill="white"/>
<path d="M2062 909.602C2062 911.122 2060.86 912.261 2059.33 912.261C2057.81 912.261 2056.66 911.122 2056.66 909.602C2056.66 908.083 2057.81 906.943 2059.33 906.943C2060.73 906.943 2062 908.083 2062 909.602Z" fill="white"/>
<path d="M1880.34 928.342C1880.34 929.861 1879.19 931.001 1877.67 931.001C1876.14 931.001 1875 929.861 1875 928.342C1875 926.822 1876.14 925.683 1877.67 925.683C1879.19 925.683 1880.34 926.949 1880.34 928.342Z" fill="white"/>
<path d="M1903.08 928.342C1903.08 929.861 1901.93 931.001 1900.41 931.001C1898.88 931.001 1897.74 929.861 1897.74 928.342C1897.74 926.822 1898.88 925.683 1900.41 925.683C1901.81 925.683 1903.08 926.949 1903.08 928.342Z" fill="white"/>
<path d="M1925.69 928.342C1925.69 929.861 1924.54 931.001 1923.02 931.001C1921.5 931.001 1920.35 929.861 1920.35 928.342C1920.35 926.822 1921.5 925.683 1923.02 925.683C1924.54 925.683 1925.69 926.949 1925.69 928.342Z" fill="white"/>
<path d="M1948.43 928.342C1948.43 929.861 1947.28 931.001 1945.76 931.001C1944.24 931.001 1943.09 929.861 1943.09 928.342C1943.09 926.822 1944.24 925.683 1945.76 925.683C1947.28 925.683 1948.43 926.949 1948.43 928.342Z" fill="white"/>
<path d="M1971.17 928.342C1971.17 929.861 1970.02 931.001 1968.5 931.001C1966.98 931.001 1965.83 929.861 1965.83 928.342C1965.83 926.822 1966.98 925.683 1968.5 925.683C1969.9 925.683 1971.17 926.949 1971.17 928.342Z" fill="white"/>
<path d="M1993.91 928.342C1993.91 929.861 1992.76 931.001 1991.24 931.001C1989.72 931.001 1988.57 929.861 1988.57 928.342C1988.57 926.822 1989.72 925.683 1991.24 925.683C1992.76 925.683 1993.91 926.949 1993.91 928.342Z" fill="white"/>
<path d="M2016.52 928.342C2016.52 929.861 2015.38 931.001 2013.85 931.001C2012.33 931.001 2011.18 929.861 2011.18 928.342C2011.18 926.822 2012.33 925.683 2013.85 925.683C2015.38 925.683 2016.52 926.949 2016.52 928.342Z" fill="white"/>
<path d="M2039.26 928.342C2039.26 929.861 2038.12 931.001 2036.59 931.001C2035.07 931.001 2033.92 929.861 2033.92 928.342C2033.92 926.822 2035.07 925.683 2036.59 925.683C2038.12 925.683 2039.26 926.949 2039.26 928.342Z" fill="white"/>
<path d="M2062 928.342C2062 929.861 2060.86 931.001 2059.33 931.001C2057.81 931.001 2056.66 929.861 2056.66 928.342C2056.66 926.822 2057.81 925.683 2059.33 925.683C2060.73 925.683 2062 926.949 2062 928.342Z" fill="white"/>
</g>
<g opacity="0.3">
<path d="M1873.81 120.222L1883.47 129.881L1857.78 155.564L1832.1 129.881L1841.68 120.295L1857.71 136.32L1873.81 120.222Z" fill="white"/>
<path d="M1873.81 85.5395L1883.39 95.1251L1857.71 120.808L1832.1 95.1982L1841.76 85.5395L1857.78 101.564L1873.81 85.5395Z" fill="white"/>
<path d="M1873.73 50.7826L1883.39 60.4413L1857.78 86.0516L1832.1 60.3682L1841.68 50.7826L1857.71 66.8073L1873.73 50.7826Z" fill="white"/>
<path d="M1873.81 16.0249L1883.47 25.6836L1857.78 51.367L1832.1 25.6836L1841.76 16.0249L1857.78 32.0496L1873.81 16.0249Z" fill="white"/>
</g>
<path opacity="0.3" d="M906 853.554C892.071 867.483 869.377 867.483 855.447 853.554C841.518 839.624 841.518 816.93 855.447 803.001L906 853.554Z" fill="white"/>
<g opacity="0.3">
<path d="M960.486 574.891C971.205 574.891 979.937 566.166 979.937 555.454C979.937 544.743 971.205 536.018 960.486 536.018L960.486 574.891Z" fill="white"/>
<path d="M930.141 574.891C940.861 574.891 949.592 566.166 949.592 555.454C949.592 544.743 940.861 536.018 930.141 536.018L930.141 574.891Z" fill="white"/>
<path d="M899.797 574.891C910.516 574.891 919.248 566.166 919.248 555.454C919.248 544.743 910.516 536.018 899.797 536.018V574.891Z" fill="white"/>
</g>
<g opacity="0.3">
<path d="M258.301 189.922L258.301 178.001L290 178.001L290 209.7L278.169 209.7L278.169 189.922L258.301 189.922Z" fill="white"/>
<path d="M236.899 211.326L236.899 199.495L268.598 199.495L268.598 231.104L256.677 231.104L256.677 211.326L236.899 211.326Z" fill="white"/>
<path d="M215.495 232.82L215.495 220.899L247.104 220.899L247.104 252.598L235.273 252.598L235.273 232.82L215.495 232.82Z" fill="white"/>
<path d="M194.001 254.223L194.001 242.302L225.7 242.302L225.7 274.001L213.779 274.001L213.779 254.223L194.001 254.223Z" fill="white"/>
</g>
<defs>
<clipPath id="clip0_2551_326">
<rect width="284" height="284" fill="white" transform="translate(0 941.001)"/>
</clipPath>
<clipPath id="clip1_2551_326">
<rect width="187" height="137" fill="white" transform="translate(1875 794.001)"/>
</clipPath>
</defs>
</svg>
