<svg width="16" height="16" viewBox="0 0 16 16" fill="none" xmlns="http://www.w3.org/2000/svg">
<path d="M8.6665 4.33268C8.6665 3.96449 8.36803 3.66602 7.99984 3.66602C7.63165 3.66602 7.33317 3.96449 7.33317 4.33268V7.99935C7.33317 8.17616 7.40341 8.34573 7.52843 8.47075L9.52843 10.4708C9.78878 10.7311 10.2109 10.7311 10.4712 10.4708C10.7316 10.2104 10.7316 9.78829 10.4712 9.52794L8.6665 7.72321V4.33268Z" fill="#787A80"/>
<path fill-rule="evenodd" clip-rule="evenodd" d="M7.99984 0.666016C3.94975 0.666016 0.666504 3.94926 0.666504 7.99935C0.666504 12.0494 3.94975 15.3327 7.99984 15.3327C12.0499 15.3327 15.3332 12.0494 15.3332 7.99935C15.3332 3.94926 12.0499 0.666016 7.99984 0.666016ZM1.99984 7.99935C1.99984 4.68564 4.68613 1.99935 7.99984 1.99935C11.3135 1.99935 13.9998 4.68564 13.9998 7.99935C13.9998 11.3131 11.3135 13.9993 7.99984 13.9993C4.68613 13.9993 1.99984 11.3131 1.99984 7.99935Z" fill="#787A80"/>
</svg>
